<svg width="12" height="12" viewBox="0 0 12 12" fill="none" xmlns="http://www.w3.org/2000/svg">
<path d="M5 10.5C4.45 10.5 3.97917 10.3042 3.5875 9.9125C3.19583 9.52083 3 9.05 3 8.5C3 7.95 3.19583 7.47917 3.5875 7.0875C3.97917 6.69583 4.45 6.5 5 6.5C5.19167 6.5 5.36883 6.523 5.5315 6.569C5.69417 6.615 5.85033 6.68367 6 6.775V2C6 1.85833 6.048 1.73967 6.144 1.644C6.24 1.54833 6.35867 1.50033 6.5 1.5H8.5C8.64167 1.5 8.7605 1.548 8.8565 1.644C8.9525 1.74 9.00033 1.85867 9 2V3C9 3.14167 8.952 3.2605 8.856 3.3565C8.76 3.4525 8.64133 3.50033 8.5 3.5H7V8.5C7 9.05 6.80417 9.52083 6.4125 9.9125C6.02083 10.3042 5.55 10.5 5 10.5Z" fill="white"/>
</svg>
