<svg width="12" height="12" viewBox="0 0 12 12" fill="none" xmlns="http://www.w3.org/2000/svg">
<path d="M9.89922 11.2999L0.699219 2.0999L1.39922 1.3999L10.5992 10.5999L9.89922 11.2999ZM6.99922 5.5749L5.99922 4.5749V1.4999H8.99922V3.4999H6.99922V5.5749ZM4.99922 10.4999C4.44922 10.4999 3.97839 10.3041 3.58672 9.9124C3.19505 9.52074 2.99922 9.0499 2.99922 8.4999C2.99922 7.9499 3.19505 7.47907 3.58672 7.0874C3.97839 6.69574 4.44922 6.4999 4.99922 6.4999C5.19089 6.4999 5.36805 6.5229 5.53072 6.5689C5.69339 6.6149 5.84955 6.68357 5.99922 6.7749V5.9999L6.99922 6.9999V8.4999C6.99922 9.0499 6.80339 9.52074 6.41172 9.9124C6.02005 10.3041 5.54922 10.4999 4.99922 10.4999Z" fill="white"/>
</svg>
